HIERARCHY
ROOT hip
{
	OFFSET 0.000000 0.000000 0.000000 
	CHANNELS 6 Xposition Yposition Zposition Xrotation Zrotation Yrotation
	JOINT abdomen
	{
		OFFSET 0.000000 3.402643 0.000000 
		CHANNELS 3 Xrotation Zrotation Yrotation
		JOINT chest
		{
			OFFSET 0.000000 8.438565 -0.680529 
			CHANNELS 3 Xrotation Zrotation Yrotation
			JOINT neck
			{
				OFFSET 0.000000 10.207942 -0.272212 
				CHANNELS 3 Xrotation Zrotation Yrotation
				JOINT head
				{
					OFFSET 0.000000 3.130431 0.000000 
					CHANNELS 3 Xrotation Zrotation Yrotation
					End Site
					{
						OFFSET 0.000000 3.130435 0.000000 
					}
				}
			}
			JOINT lCollar
			{
				OFFSET 3.470700 6.669187 -0.816635 
				CHANNELS 3 Yrotation Zrotation Xrotation
				JOINT lShldr
				{
					OFFSET 3.198488 0.000000 0.000000 
					CHANNELS 3 Zrotation Yrotation Xrotation
					JOINT lForeArm
					{
						OFFSET 10.139888 0.000000 0.000000 
						CHANNELS 3 Yrotation Zrotation Xrotation
						JOINT lHand
						{
							OFFSET 8.370511 0.000000 0.000000 
							CHANNELS 3 Zrotation Yrotation Xrotation
							End Site
							{
								OFFSET 4.083176 0.000000 0.000000 
							}
						}
					}
				}
			}
			JOINT rCollar
			{
				OFFSET -3.470700 6.669187 -0.816635 
				CHANNELS 3 Yrotation Zrotation Xrotation
				JOINT rShldr
				{
					OFFSET -3.198488 0.000000 0.000000 
					CHANNELS 3 Zrotation Yrotation Xrotation
					JOINT rForeArm
					{
						OFFSET -10.139888 0.000000 0.000000 
						CHANNELS 3 Yrotation Zrotation Xrotation
						JOINT rHand
						{
							OFFSET -8.370511 0.000000 0.000000 
							CHANNELS 3 Zrotation Yrotation Xrotation
							End Site
							{
								OFFSET -4.083176 0.000000 0.000000 
							}
						}
					}
				}
			}
		}
	}
	JOINT lThigh
	{
		OFFSET 5.308129 -1.633274 1.361059 
		CHANNELS 3 Xrotation Zrotation Yrotation
		JOINT lShin
		{
			OFFSET -2.041588 -20.007561 0.000000 
			CHANNELS 3 Xrotation Zrotation Yrotation
			JOINT lFoot
			{
				OFFSET 0.000000 -19.190928 -1.224953 
				CHANNELS 3 Xrotation Yrotation Zrotation
				End Site
				{
					OFFSET 0.000000 -2.449906 4.627600 
				}
			}
		}
	}
	JOINT rThigh
	{
		OFFSET -5.308129 -1.633274 1.361059 
		CHANNELS 3 Xrotation Zrotation Yrotation
		JOINT rShin
		{
			OFFSET 2.041588 -20.007561 0.000000 
			CHANNELS 3 Xrotation Zrotation Yrotation
			JOINT rFoot
			{
				OFFSET 0.000000 -19.190928 -1.224953 
				CHANNELS 3 Xrotation Yrotation Zrotation
				End Site
				{
					OFFSET 0.000000 -2.449906 4.627600 
				}
			}
		}
	}
}
MOTION
Frames: 6
Frame Time: 0.011111
29.633564 51.990753 -43.910309 2.724609 -3.378906 -37.763676 21.308594 0.722656 -2.050781 -22.910156 7.548829 -0.302734 -8.496094 -15.019531 -6.281827 33.984379 24.638672 -7.476398 6.650391 -7.392578 2.813757 -69.589844 -33.544922 32.250458 -48.828125 7.412108 7.674522 8.515625 12.646484 -60.410156 -7.246094 1.298828 2.988281 70.761719 25.332031 8.046876 49.804688 -7.666016 8.077475 -8.535156 -12.646484 54.619144 -2.752260 8.890732 2.354944 34.486431 -5.069777 -5.435156 -32.620808 4.119754 1.164274 -9.719817 -9.057489 5.985535 34.702682 5.003579 5.415545 -23.646795 -0.177970 2.325337 
29.638546 51.983284 -43.894753 2.617188 -3.300781 -37.734379 21.289063 0.625000 -2.206925 -22.802734 7.568360 -0.322266 -8.847656 -14.638673 -6.230468 34.189453 23.876953 -7.642533 6.650391 -7.392578 2.813757 -69.638672 -33.613285 32.367641 -48.798824 7.412109 7.664756 8.515625 12.646484 -59.912109 -7.246094 1.298828 2.988281 70.742188 25.488281 7.963189 49.794922 -7.666016 8.076172 -8.535156 -12.646484 54.580074 -2.665062 8.725976 2.329217 34.466640 -5.075283 -5.415630 -32.662621 4.101828 1.140823 -9.694212 -9.245744 5.921102 34.702682 5.003579 5.415545 -23.711458 -0.057811 2.368639 
29.646631 51.977371 -43.883858 2.636719 -3.359349 -37.715633 21.240234 0.781250 -2.285157 -22.763672 7.578125 -0.360040 -9.462890 -14.287109 -6.144989 34.833984 22.900391 -7.779403 6.650391 -7.392578 2.813757 -69.775391 -33.505859 32.309071 -48.847656 7.421875 7.684286 8.515625 12.646484 -59.619137 -7.246094 1.298828 2.988281 70.654297 25.566408 7.728825 49.785152 -7.666015 8.066405 -8.535156 -12.646484 54.570316 -2.636314 8.737560 2.182240 34.437351 -5.075220 -5.403319 -32.697933 4.129910 1.187570 -9.645579 -9.187315 5.948740 34.722416 5.003622 5.417281 -23.713800 -0.132855 2.343401 
29.653477 51.971771 -43.867992 2.587890 -3.330078 -37.753910 21.191406 0.761719 -2.245959 -22.724607 7.529296 -0.340517 -9.697266 -14.091797 -6.154721 35.009762 22.460939 -7.939453 6.650391 -7.392578 2.813757 -69.833984 -33.486324 32.246090 -48.789063 7.402343 7.654992 8.515625 12.646484 -59.609375 -7.246094 1.298828 2.988281 70.625000 25.595701 7.474922 49.814453 -7.666016 8.085937 -8.535156 -12.646484 54.541016 -2.546777 8.625067 2.148227 34.408058 -5.075147 -5.391004 -32.727509 4.232636 1.219772 -9.631650 -9.262209 5.980682 34.722092 5.003607 5.426968 -23.701546 -0.054234 2.370843 
29.658768 51.968971 -43.846523 2.470703 -3.222656 -37.773438 21.152344 0.595703 -2.216797 -22.675781 7.529296 -0.301455 -9.619141 -14.169923 -6.152344 34.951172 22.587889 -7.929687 6.650391 -7.392578 2.813757 -69.892578 -33.486328 32.240707 -48.730469 7.392579 7.636717 8.515625 12.646484 -59.628902 -7.246094 1.298828 2.988281 70.566406 25.576172 7.416328 49.882813 -7.685547 8.115233 -8.535156 -12.646484 54.648438 -2.448947 8.409520 2.031120 34.397537 -5.075066 -5.409497 -32.792427 4.254893 1.274718 -9.617538 -9.490911 5.916894 34.702877 4.993988 5.441850 -23.775440 0.072189 2.407142 
29.665922 51.972706 -43.836254 2.480469 -3.281250 -37.764233 21.132813 0.683594 -2.148437 -22.724609 7.539062 -0.302734 -9.570313 -14.423828 -6.123047 35.078125 22.900391 -7.763673 6.650391 -7.392578 2.813757 -70.000000 -33.359375 32.240723 -48.750000 7.392578 7.646485 8.515625 12.646484 -59.746098 -7.246094 1.298828 2.988281 70.498047 25.615234 7.089843 49.843750 -7.675781 8.095703 -8.535156 -12.646484 54.560547 -2.459143 8.450496 1.993520 34.398884 -5.069600 -5.388538 -32.848019 4.191103 1.252883 -9.596138 -9.450386 5.866822 34.702358 5.003551 5.425227 -23.826042 0.032908 2.382424 
